<mxfile host="65bd71144e">
    <diagram id="R06ROpx_WzvDg-Q5mbAC" name="Page-1">
        <mxGraphModel dx="1060" dy="569" grid="1" gridSize="10" guides="1" tooltips="1" connect="1" arrows="1" fold="1" page="1" pageScale="1" pageWidth="850" pageHeight="1100" math="0" shadow="0">
            <root>
                <mxCell id="0"/>
                <mxCell id="1" parent="0"/>
                <mxCell id="22" style="edgeStyle=none;html=1;exitX=1;exitY=0.5;exitDx=0;exitDy=0;entryX=0;entryY=0.5;entryDx=0;entryDy=0;" edge="1" parent="1" source="11" target="13">
                    <mxGeometry relative="1" as="geometry"/>
                </mxCell>
                <mxCell id="11" value="&lt;span style=&quot;color: rgb(0, 0, 0); text-wrap-mode: nowrap;&quot;&gt;o&lt;/span&gt;&lt;span style=&quot;text-wrap-mode: nowrap; background-color: transparent;&quot;&gt;nChainId Creation:&lt;br&gt;&lt;/span&gt;&lt;br&gt;Identity Implementation,&lt;div&gt;&lt;span style=&quot;color: rgb(0, 0, 0);&quot;&gt;Identity Implementation Authority,&lt;/span&gt;&lt;/div&gt;&lt;div&gt;&lt;span style=&quot;color: rgb(0, 0, 0);&quot;&gt;&lt;span style=&quot;color: rgb(0, 0, 0);&quot;&gt;Claim Issuer,&lt;/span&gt;&lt;/span&gt;&lt;/div&gt;&lt;div&gt;&lt;span style=&quot;color: rgb(0, 0, 0);&quot;&gt;&lt;span style=&quot;color: rgb(0, 0, 0);&quot;&gt;Users as needed&lt;/span&gt;&lt;/span&gt;&lt;/div&gt;&lt;div&gt;&lt;span style=&quot;color: rgb(0, 0, 0);&quot;&gt;&lt;span style=&quot;color: rgb(0, 0, 0);&quot;&gt;&lt;br&gt;&lt;/span&gt;&lt;/span&gt;&lt;/div&gt;" style="rounded=0;whiteSpace=wrap;html=1;" vertex="1" parent="1">
                    <mxGeometry x="7" y="75" width="180" height="150" as="geometry"/>
                </mxCell>
                <mxCell id="26" style="edgeStyle=none;html=1;exitX=1;exitY=0.5;exitDx=0;exitDy=0;entryX=0;entryY=0.5;entryDx=0;entryDy=0;" edge="1" parent="1" source="13" target="16">
                    <mxGeometry relative="1" as="geometry"/>
                </mxCell>
                <mxCell id="13" value="&lt;span style=&quot;color: rgb(0, 0, 0); text-wrap-mode: nowrap;&quot;&gt;&lt;span style=&quot;color: rgb(0, 0, 0);&quot;&gt;Intialize Smart Contracts:&lt;/span&gt;&lt;/span&gt;&lt;div&gt;&lt;font color=&quot;#000000&quot;&gt;&lt;span style=&quot;text-wrap-mode: nowrap;&quot;&gt;&lt;br&gt;&lt;/span&gt;&lt;/font&gt;&lt;div&gt;&lt;span style=&quot;color: rgb(0, 0, 0); text-wrap-mode: nowrap;&quot;&gt;Identity Registry,&lt;/span&gt;&lt;div style=&quot;text-wrap-mode: nowrap;&quot;&gt;Token,&lt;/div&gt;&lt;div style=&quot;text-wrap-mode: nowrap;&quot;&gt;Identity Registry Storage&lt;/div&gt;&lt;/div&gt;&lt;/div&gt;" style="rounded=0;whiteSpace=wrap;html=1;" vertex="1" parent="1">
                    <mxGeometry x="207" y="75" width="140" height="150" as="geometry"/>
                </mxCell>
                <mxCell id="24" style="edgeStyle=none;html=1;exitX=1;exitY=0.5;exitDx=0;exitDy=0;entryX=0;entryY=0.5;entryDx=0;entryDy=0;" edge="1" parent="1" source="16" target="19">
                    <mxGeometry relative="1" as="geometry"/>
                </mxCell>
                <mxCell id="16" value="&lt;div&gt;&lt;span style=&quot;color: rgb(0, 0, 0); text-wrap-mode: nowrap;&quot;&gt;&lt;span style=&quot;color: rgb(0, 0, 0);&quot;&gt;Add Agent (Admin):&lt;/span&gt;&lt;/span&gt;&lt;/div&gt;&lt;div&gt;&lt;span style=&quot;color: rgb(0, 0, 0); text-wrap-mode: nowrap;&quot;&gt;&lt;span style=&quot;color: rgb(0, 0, 0);&quot;&gt;&lt;br&gt;&lt;/span&gt;&lt;/span&gt;&lt;/div&gt;&lt;span style=&quot;color: rgb(0, 0, 0); text-wrap-mode: nowrap;&quot;&gt;Identity Registry,&lt;/span&gt;&lt;div style=&quot;text-wrap-mode: nowrap;&quot;&gt;Token,&lt;/div&gt;&lt;div style=&quot;text-wrap-mode: nowrap;&quot;&gt;Identity Registry Storage&lt;/div&gt;" style="rounded=0;whiteSpace=wrap;html=1;" vertex="1" parent="1">
                    <mxGeometry x="367" y="75" width="135" height="150" as="geometry"/>
                </mxCell>
                <mxCell id="29" style="edgeStyle=none;html=1;exitX=1;exitY=0.5;exitDx=0;exitDy=0;entryX=0;entryY=0.5;entryDx=0;entryDy=0;" edge="1" parent="1" source="19" target="27">
                    <mxGeometry relative="1" as="geometry"/>
                </mxCell>
                <mxCell id="19" value="&lt;span style=&quot;color: rgb(63, 63, 63); text-wrap-mode: nowrap;&quot;&gt;Verified Users for Token&lt;/span&gt;&lt;span style=&quot;background-color: transparent;&quot;&gt;:&lt;/span&gt;&lt;div&gt;&lt;br&gt;IdentityRegistryStorage:&lt;br&gt;addIdentityToStorage&lt;br&gt;alice&lt;br&gt;bob&lt;/div&gt;" style="rounded=0;whiteSpace=wrap;html=1;" vertex="1" parent="1">
                    <mxGeometry x="517" y="78" width="133" height="147" as="geometry"/>
                </mxCell>
                <mxCell id="27" value="Mint Tokens:&lt;br&gt;&lt;br&gt;alice&lt;br&gt;bob" style="rounded=0;whiteSpace=wrap;html=1;" vertex="1" parent="1">
                    <mxGeometry x="717" y="78" width="120" height="462" as="geometry"/>
                </mxCell>
                <mxCell id="30" value="&lt;h1 style=&quot;margin-top: 0px;&quot;&gt;1. Happy Flow&lt;/h1&gt;&lt;p&gt;Basic flow for minting the tokens to the users without country or claims.&lt;/p&gt;" style="text;html=1;whiteSpace=wrap;overflow=hidden;rounded=0;" vertex="1" parent="1">
                    <mxGeometry x="7" width="450" height="70" as="geometry"/>
                </mxCell>
                <mxCell id="31" value="&lt;h1 style=&quot;margin-top: 0px;&quot;&gt;2. KYC and AML Claim&lt;/h1&gt;&lt;p&gt;Users should hold the KYC and AML claim reference ex: 7&lt;/p&gt;" style="text;html=1;whiteSpace=wrap;overflow=hidden;rounded=0;" vertex="1" parent="1">
                    <mxGeometry x="6" y="240" width="450" height="70" as="geometry"/>
                </mxCell>
                <mxCell id="46" style="edgeStyle=none;html=1;exitX=1;exitY=0.5;exitDx=0;exitDy=0;entryX=0;entryY=0.5;entryDx=0;entryDy=0;" edge="1" parent="1" source="35" target="41">
                    <mxGeometry relative="1" as="geometry">
                        <Array as="points"/>
                    </mxGeometry>
                </mxCell>
                <mxCell id="35" value="" style="rounded=0;whiteSpace=wrap;html=1;" vertex="1" parent="1">
                    <mxGeometry x="6" y="320" width="420" height="220" as="geometry"/>
                </mxCell>
                <mxCell id="32" value="Claim Topics Registry:&lt;br&gt;&lt;br&gt;addClaimTopic, 7" style="rounded=0;whiteSpace=wrap;html=1;" vertex="1" parent="1">
                    <mxGeometry x="17" y="410" width="192" height="90" as="geometry"/>
                </mxCell>
                <mxCell id="34" value="Identity Registry:&lt;br&gt;Tranfer owener ship to tokenIssuer,&lt;div&gt;&lt;br&gt;&lt;/div&gt;&lt;div&gt;TrustedIssuersRegistry:&lt;/div&gt;&lt;div&gt;addTrustedIssuer with claim topics(7)&lt;/div&gt;" style="rounded=0;whiteSpace=wrap;html=1;" vertex="1" parent="1">
                    <mxGeometry x="219" y="410" width="192" height="90" as="geometry"/>
                </mxCell>
                <mxCell id="36" value="Adding Claims to Token Smart Contract" style="text;html=1;align=center;verticalAlign=middle;whiteSpace=wrap;rounded=0;" vertex="1" parent="1">
                    <mxGeometry x="146" y="340" width="140" height="30" as="geometry"/>
                </mxCell>
                <mxCell id="44" value="" style="edgeStyle=none;html=1;" edge="1" parent="1" source="41" target="42">
                    <mxGeometry relative="1" as="geometry"/>
                </mxCell>
                <mxCell id="41" value="construct claim object:&lt;br&gt;&amp;nbsp; data, issuer, topic, scheme, identity, signature of Trusted Issuer" style="rounded=1;whiteSpace=wrap;html=1;glass=0;" vertex="1" parent="1">
                    <mxGeometry x="465" y="270" width="160" height="130" as="geometry"/>
                </mxCell>
                <mxCell id="47" style="edgeStyle=none;html=1;entryX=0;entryY=0.5;entryDx=0;entryDy=0;" edge="1" parent="1" source="42" target="27">
                    <mxGeometry relative="1" as="geometry">
                        <Array as="points">
                            <mxPoint x="657" y="488"/>
                        </Array>
                    </mxGeometry>
                </mxCell>
                <mxCell id="42" value="addClaim to user onChainId" style="rounded=0;whiteSpace=wrap;html=1;" vertex="1" parent="1">
                    <mxGeometry x="459" y="425" width="180" height="115" as="geometry"/>
                </mxCell>
                <mxCell id="48" value="&lt;h1 style=&quot;margin-top: 0px;&quot;&gt;3. Country Restrictions&lt;/h1&gt;&lt;p&gt;Only allow few countries investors for token minting and transfer.&lt;/p&gt;" style="text;html=1;whiteSpace=wrap;overflow=hidden;rounded=0;" vertex="1" parent="1">
                    <mxGeometry x="6" y="564" width="371" height="84" as="geometry"/>
                </mxCell>
            </root>
        </mxGraphModel>
    </diagram>
</mxfile>